<svg width="40" height="34" viewBox="0 0 40 34" fill="none" xmlns="http://www.w3.org/2000/svg">
<rect x="0.559814" y="9.5127" width="24.2984" height="24.2984" rx="4" fill="#FFFCF7"/>
<rect x="0.559814" y="13.8323" width="13.884" height="3.64322" rx="1" fill="#7189FF"/>
<rect x="25.8096" y="6.22388" width="13.3917" height="1.8252" rx="0.912598" fill="#FFFCF7"/>
<rect x="31.5928" y="13.8323" width="13.3917" height="1.8252" rx="0.912598" transform="rotate(-90 31.5928 13.8323)" fill="#FFFCF7"/>
<rect x="9.17944" y="19.8401" width="13.884" height="3.64322" rx="1" fill="#7189FF"/>
<rect x="2.63062" y="25.8479" width="13.884" height="3.64322" rx="1" fill="#7189FF"/>
<rect x="19.2717" y="25.8479" width="5.58677" height="3.64322" rx="1" fill="#7189FF"/>
<rect x="23.6807" y="25.8479" width="1.17791" height="3.64322" fill="#7189FF"/>
<rect x="16.7527" y="13.8323" width="8.1051" height="3.64322" rx="1" fill="#7189FF"/>
<rect x="23.4937" y="13.8323" width="1.36413" height="3.64322" fill="#7189FF"/>
<rect x="0.559814" y="19.8401" width="6.14002" height="3.64322" rx="1" fill="#7189FF"/>
<rect x="0.559814" y="19.8401" width="1.17798" height="3.64322" fill="#7189FF"/>
<rect x="0.559814" y="13.8323" width="2.0597" height="3.64322" fill="#7189FF"/>
</svg>
