<svg width="90" height="90" viewBox="0 0 90 90" fill="none" xmlns="http://www.w3.org/2000/svg">
<g filter="url(#filter0_d)">
<rect x="4.7572" y="0.67627" width="80.33" height="80.33" rx="10" fill="#7189FF"/>
<rect x="7.2572" y="3.17627" width="75.33" height="75.33" rx="7.5" stroke="#7189FF" stroke-width="5"/>
</g>
<rect x="4.7572" y="14.957" width="45.9004" height="12.0444" rx="3" fill="#FFFCF7"/>
<rect x="33.2538" y="34.8186" width="45.9004" height="12.0444" rx="3" fill="#FFFCF7"/>
<rect x="11.6034" y="54.6807" width="45.9004" height="12.0444" rx="3" fill="#FFFCF7"/>
<rect x="66.6185" y="54.6807" width="18.4698" height="12.0444" rx="3" fill="#FFFCF7"/>
<rect x="80.2756" y="54.6807" width="4.81164" height="12.0444" fill="#FFFCF7"/>
<rect x="58.291" y="14.957" width="26.7953" height="12.0444" rx="3" fill="#FFFCF7"/>
<rect x="4.7572" y="34.8186" width="20.2988" height="12.0444" rx="3" fill="#FFFCF7"/>
<rect x="4.7572" y="34.8186" width="3.89438" height="12.0444" fill="#FFFCF7"/>
<rect x="81.8295" y="14.957" width="3.25773" height="12.0444" fill="#FFFCF7"/>
<rect x="4.7572" y="14.957" width="3.89438" height="12.0444" fill="#FFFCF7"/>
<defs>
<filter id="filter0_d" x="0.757202" y="0.67627" width="88.33" height="88.33" filterUnits="userSpaceOnUse" color-interpolation-filters="sRGB">
<feFlood flood-opacity="0" result="BackgroundImageFix"/>
<feColorMatrix in="SourceAlpha" type="matrix" values="0 0 0 0 0 0 0 0 0 0 0 0 0 0 0 0 0 0 127 0"/>
<feOffset dy="4"/>
<feGaussianBlur stdDeviation="2"/>
<feColorMatrix type="matrix" values="0 0 0 0 0 0 0 0 0 0 0 0 0 0 0 0 0 0 0.25 0"/>
<feBlend mode="normal" in2="BackgroundImageFix" result="effect1_dropShadow"/>
<feBlend mode="normal" in="SourceGraphic" in2="effect1_dropShadow" result="shape"/>
</filter>
</defs>
</svg>
